<svg id="svg" version="1.1" xmlns="http://www.w3.org/2000/svg" xmlns:xlink="http://www.w3.org/1999/xlink" viewBox="103.65 71.97 220.37 255.63"><g id="svgg"><path id="path1" d="M319.421 72.490 C 261.498 80.409,223.634 105.459,212.892 142.969 C 211.909 146.402,211.918 144.558,212.912 139.033 C 214.583 129.747,217.938 120.809,222.688 112.988 C 223.503 111.646,224.094 110.547,224.000 110.547 C 223.720 110.547,216.491 115.965,212.305 119.312 C 188.999 137.946,172.160 157.739,167.057 172.497 C 163.706 182.189,162.093 200.948,163.869 209.570 C 164.396 212.130,163.327 209.423,162.172 205.273 C 159.779 196.674,158.903 188.429,159.681 181.836 C 159.884 180.117,160.000 178.652,159.940 178.580 C 159.879 178.509,158.846 180.121,157.644 182.164 C 148.408 197.857,144.527 211.867,144.534 229.490 C 144.536 235.395,145.571 245.714,146.276 246.853 C 146.375 247.015,144.794 249.854,142.761 253.163 C 140.728 256.472,139.064 259.308,139.064 259.464 C 139.063 259.737,144.223 263.350,144.361 263.172 C 144.398 263.125,146.765 259.219,149.621 254.492 C 157.908 240.778,158.737 239.426,163.331 232.123 C 195.402 181.149,230.441 139.426,265.294 110.712 C 271.212 105.837,272.079 105.415,267.087 109.840 C 233.887 139.268,193.760 190.612,160.753 245.898 C 155.533 254.642,155.314 255.078,156.149 255.078 C 167.443 255.078,188.342 248.415,201.476 240.627 C 208.412 236.514,225.377 222.513,224.495 221.630 C 224.418 221.553,222.523 222.107,220.284 222.861 C 213.267 225.224,208.598 225.957,200.977 225.891 C 194.804 225.837,186.258 224.796,190.820 224.654 C 203.809 224.247,221.567 217.809,232.813 209.428 C 240.356 203.806,252.329 188.342,268.949 162.753 C 269.670 161.644,269.659 161.647,266.184 163.385 C 256.450 168.254,248.462 170.363,237.695 170.907 C 231.930 171.199,231.083 170.848,235.352 169.935 C 260.191 164.627,280.031 149.804,290.790 128.516 C 293.488 123.176,293.637 122.840,298.825 110.398 C 307.508 89.573,313.895 79.734,323.253 72.764 C 324.572 71.782,324.588 71.783,319.421 72.490 M279.389 259.060 C 276.474 260.045,275.328 262.320,277.146 263.511 C 278.347 264.298,279.592 264.030,281.260 262.627 C 286.436 258.272,294.708 264.082,294.027 271.594 C 292.730 285.890,267.886 295.930,252.734 288.281 C 250.003 286.902,250.069 287.095,251.536 284.800 C 258.944 273.209,258.461 264.201,250.550 266.416 C 243.577 268.369,240.447 278.213,244.730 284.717 L 246.046 286.714 242.885 291.111 C 231.870 306.434,217.356 321.003,213.486 320.624 C 210.621 320.343,212.028 314.727,218.569 300.341 C 227.109 281.558,227.953 276.739,223.215 273.811 C 219.708 271.644,214.997 273.254,207.562 279.160 C 177.150 303.321,163.976 311.964,146.929 318.939 C 135.014 323.814,128.531 324.858,112.611 324.464 C 109.930 324.398,108.546 325.475,110.382 326.200 C 116.838 328.746,130.741 327.695,142.578 323.766 C 155.443 319.496,170.632 310.921,187.554 298.376 C 192.771 294.508,193.953 293.585,204.297 285.318 C 220.915 272.034,221.687 272.631,212.920 291.976 C 203.825 312.043,202.612 319.646,207.881 323.553 C 214.021 328.105,229.829 315.385,245.890 292.969 C 247.352 290.928,248.601 289.195,248.666 289.118 C 248.730 289.040,249.308 289.351,249.950 289.808 C 258.590 295.960,278.678 293.575,288.948 285.177 C 298.938 277.009,299.219 264.012,289.501 259.648 C 287.396 258.703,281.468 258.358,279.389 259.060 M133.811 261.415 C 132.509 263.274,133.414 264.313,139.825 268.318 C 145.182 271.665,146.864 272.184,147.643 270.729 C 148.742 268.674,148.228 268.108,141.277 263.715 C 135.988 260.372,134.798 260.006,133.811 261.415 M128.711 270.851 C 123.378 276.360,118.145 280.379,113.235 282.736 L 111.040 283.789 110.762 287.109 C 109.669 300.171,107.418 311.596,104.503 318.883 C 103.416 321.600,103.401 323.347,104.474 322.237 C 104.771 321.931,107.727 317.197,111.045 311.719 C 114.362 306.240,117.971 300.366,119.064 298.665 C 120.603 296.271,120.968 295.417,120.682 294.883 C 118.970 291.684,122.206 288.002,125.316 289.610 C 128.653 291.336,127.182 296.484,123.351 296.484 C 122.645 296.484,122.065 297.110,120.724 299.316 C 119.777 300.874,117.034 305.313,114.629 309.180 C 108.111 319.658,105.859 323.423,105.859 323.842 C 105.859 324.918,107.273 323.895,109.558 321.166 C 114.391 315.391,121.548 309.798,131.445 304.059 C 134.668 302.191,137.329 300.645,137.359 300.624 C 137.390 300.603,137.623 298.389,137.878 295.703 C 138.516 288.981,139.563 284.061,141.596 278.229 C 142.546 275.503,143.288 273.242,143.244 273.207 C 142.772 272.823,133.472 267.120,133.107 266.990 C 132.838 266.894,130.859 268.631,128.711 270.851 M253.020 271.891 C 252.683 275.603,248.159 284.525,247.283 283.203 C 244.320 278.734,247.695 269.540,252.300 269.533 C 253.205 269.531,253.227 269.604,253.020 271.891 " stroke="none" fill="#7579a3" fill-rule="evenodd"/></g></svg>